<svg xmlns="http://www.w3.org/2000/svg" width="1000" height="1000" viewBox="0 0 1000 1000">
  <defs>
    <linearGradient id="bg" x1="0" y1="0" x2="1" y2="1"><stop stop-color="#0A0D2B"/><stop offset="1" stop-color="#05071C"/></linearGradient>
    <radialGradient id="a1" cx="30%" cy="30%" r="45%"><stop stop-color="#8B7CFF" stop-opacity=".9"/><stop offset="1" stop-color="#8B7CFF" stop-opacity="0"/></radialGradient>
    <radialGradient id="a2" cx="72%" cy="74%" r="45%"><stop stop-color="#2FD3EA" stop-opacity=".75"/><stop offset="1" stop-color="#2FD3EA" stop-opacity="0"/></radialGradient>
    <linearGradient id="gl" x1="14" y1="8" x2="50" y2="56" gradientUnits="userSpaceOnUse"><stop stop-color="#fff" stop-opacity=".42"/><stop offset=".5" stop-color="#fff" stop-opacity=".12"/><stop offset="1" stop-color="#fff" stop-opacity=".22"/></linearGradient>
    <linearGradient id="rim" x1="14" y1="8" x2="50" y2="56" gradientUnits="userSpaceOnUse"><stop stop-color="#fff" stop-opacity=".9"/><stop offset=".5" stop-color="#fff" stop-opacity=".15"/><stop offset="1" stop-color="#9FF3FF" stop-opacity=".8"/></linearGradient>
    <filter id="blur" filterUnits="userSpaceOnUse" x="-200" y="-200" width="1400" height="1400"><feGaussianBlur stdDeviation="70"/></filter>
    <filter id="sh" x="-50%" y="-50%" width="200%" height="200%"><feGaussianBlur stdDeviation="3"/></filter>
    <filter id="grain"><feTurbulence type="fractalNoise" baseFrequency=".9" numOctaves="2" stitchTiles="stitch"/><feColorMatrix values="0 0 0 0 1  0 0 0 0 1  0 0 0 0 1  0 0 0 .05 0"/></filter>
  </defs>
  <rect width="1000" height="1000" fill="url(#bg)"/>
  <g filter="url(#blur)"><rect width="1000" height="1000" fill="url(#a1)"/><rect width="1000" height="1000" fill="url(#a2)"/></g>
  <g transform="translate(500 512) scale(13.6) translate(-32 -32.25)">
    <path d="M32 8.5S14.5 27.2 14.5 39.2C14.5 48.6 22.3 56 32 56s17.5-7.4 17.5-16.8C49.5 27.2 32 8.5 32 8.5z" fill="#000" opacity=".45" transform="translate(0 2.2)" filter="url(#sh)"/>
    <path fill="url(#gl)" fill-rule="evenodd" d="M32 8.5S14.5 27.2 14.5 39.2C14.5 48.6 22.3 56 32 56s17.5-7.4 17.5-16.8C49.5 27.2 32 8.5 32 8.5zM29.4 40.03A4.8 4.8 0 1 1 34.6 40.03L36.1 47.5H27.9Z"/>
    <path d="M32 8.5S14.5 27.2 14.5 39.2C14.5 48.6 22.3 56 32 56s17.5-7.4 17.5-16.8C49.5 27.2 32 8.5 32 8.5z" fill="none" stroke="url(#rim)" stroke-width=".5"/>
    <path d="M29.4 40.03A4.8 4.8 0 1 1 34.6 40.03L36.1 47.5H27.9Z" fill="#fff" opacity=".95"/>
  </g>
  <rect width="1000" height="1000" filter="url(#grain)"/></svg>